<?xml version="1.0" encoding="UTF-8" standalone="no"?><!DOCTYPE svg PUBLIC "-//W3C//DTD SVG 1.1//EN" "http://www.w3.org/Graphics/SVG/1.1/DTD/svg11.dtd"><svg width="100%" height="100%" viewBox="0 0 150 100" version="1.1" xmlns="http://www.w3.org/2000/svg" xmlns:xlink="http://www.w3.org/1999/xlink" xml:space="preserve" xmlns:serif="http://www.serif.com/" style="fill-rule:evenodd;clip-rule:evenodd;"><path d="M144.32,38.543l0.783,0l-0.234,-3.346c-0.744,-0.234 -1.78,-0.371 -3.385,-0.371c-2.798,0 -4.656,1.643 -4.656,3.873c0,1.976 0.978,3.11 3.619,4.187c2.426,0.998 3.149,1.702 3.149,2.876c0,1.115 -0.998,2.093 -2.582,2.093c-1.213,0 -1.761,-0.312 -2.27,-0.978c-0.528,-0.705 -0.841,-1.35 -1.311,-2.328l-0.802,0l0.234,3.717c0.881,0.274 2.25,0.587 3.99,0.587c3.268,0 5.01,-1.957 5.01,-4.401c0,-1.82 -1.174,-2.936 -4.207,-4.167c-2.27,-0.939 -2.758,-1.467 -2.758,-2.485c0,-1.154 1.017,-1.995 2.405,-1.995c0.998,0 1.448,0.293 1.839,0.725c0.491,0.585 0.688,0.976 1.177,2.013Z" style="fill-rule:nonzero;"/><path d="M128.368,45.721l0,-3.638l0.587,0c1.623,0 1.937,0.039 2.211,0.587c0.233,0.528 0.37,0.763 0.527,1.369l0.781,0l0,-4.892l-0.781,0c-0.156,0.627 -0.293,0.9 -0.527,1.351c-0.295,0.489 -0.726,0.587 -2.212,0.587l-0.587,0l0,-4.891c0.373,-0.078 0.919,-0.177 2.172,-0.177c1.564,0 1.975,0 2.582,0.783c0.273,0.392 0.587,0.939 1.037,1.976l0.781,0l-0.233,-3.718l-10.702,0l0,0.686l0.763,0.157c0.548,0.116 0.725,0.215 0.725,1.31l0,9.254c0,1.076 -0.177,1.174 -0.725,1.291l-0.763,0.157l0,0.704l11.112,0l0.294,-4.382l-0.802,0c-0.471,1.173 -0.9,2.093 -1.253,2.562c-0.606,0.783 -0.899,0.842 -2.64,0.842c-2.29,0 -2.348,0.02 -2.348,-1.918Z" style="fill-rule:nonzero;"/><path d="M116.874,48.618l5.888,0l0,-0.704l-0.802,-0.157c-0.568,-0.137 -0.723,-0.215 -0.723,-1.291l0,-9.254c0,-1.095 0.175,-1.193 0.724,-1.31l0.801,-0.157l0,-0.686l-5.889,0l0,0.686l0.802,0.157c0.569,0.155 0.686,0.215 0.686,1.31l0,3.972l-5.282,0l0,-3.972c0,-1.095 0.137,-1.154 0.724,-1.31l0.802,-0.157l0,-0.686l-5.889,0l0,0.686l0.763,0.157c0.549,0.116 0.725,0.215 0.725,1.31l0,9.254c0,1.076 -0.176,1.174 -0.725,1.291l-0.763,0.157l0,0.704l5.889,0l0,-0.704l-0.802,-0.157c-0.606,-0.137 -0.724,-0.215 -0.724,-1.291l0,-4.265l5.282,0l0,4.265c0,1.076 -0.117,1.154 -0.686,1.291l-0.802,0.157l0,0.704Z" style="fill-rule:nonzero;"/><path d="M99.664,41.554c-0.001,-4.343 1.191,-5.771 3.794,-5.771c1.154,0 1.508,0.079 1.996,0.724c0.49,0.665 0.939,1.644 1.428,2.739l0.764,0l-0.195,-3.972c-0.861,-0.234 -2.23,-0.449 -3.756,-0.449c-3.815,0 -7.102,1.976 -7.102,7.121c0,4.772 2.797,6.905 6.749,6.905c1.721,0 3.268,-0.411 4.206,-0.821l0.196,-3.737l-0.725,0c-0.431,1.135 -0.704,1.663 -1.252,2.465c-0.527,0.724 -0.959,1.135 -2.445,1.135c-2.466,0 -3.659,-1.388 -3.659,-6.339Z" style="fill-rule:nonzero;"/><path d="M106.594,22.092l0.802,0l-0.195,-4.421l-11.426,0l-0.195,4.421l0.802,0c0.469,-1.213 0.686,-1.878 1.134,-2.543c0.568,-0.9 0.861,-0.938 2.485,-0.938l0.059,0l0,10.466c0,1.076 -0.137,1.153 -0.763,1.291l-0.841,0.156l0,0.704l6.063,0l0,-0.704l-0.841,-0.156c-0.665,-0.138 -0.743,-0.215 -0.743,-1.291l0,-10.467l0.039,0c1.644,0 1.917,0.019 2.504,0.938c0.431,0.666 0.665,1.331 1.115,2.544Z" style="fill-rule:nonzero;"/><path d="M51.711,19.137c0,0.254 -0.216,0.743 -0.881,1.467l-3.286,3.737l0,0.313c1.173,2.269 2.758,4.655 4.343,6.572l3.873,0l0,-0.704l-0.88,-0.176c-0.274,-0.078 -0.372,-0.137 -0.665,-0.45c-1.428,-1.761 -3.267,-4.461 -4.422,-6.593l3.013,-3.267c1.017,-1.076 1.35,-1.428 2.093,-1.604l0.254,-0.078l0,-0.685l-4.793,0l0,0.685l0.626,0.156c0.372,0.1 0.725,0.335 0.725,0.627Z" style="fill-rule:nonzero;"/><path d="M47.68,18.512l0.802,-0.156l0,-0.685l-5.889,0l0,0.685l0.763,0.156c0.548,0.117 0.724,0.215 0.724,1.312l0,9.253c0,1.076 -0.176,1.174 -0.724,1.291l-0.763,0.156l0,0.704l5.889,0l0,-0.704l-0.802,-0.156c-0.607,-0.138 -0.724,-0.215 -0.724,-1.291l0,-9.253c0.001,-1.098 0.117,-1.155 0.724,-1.312Z" style="fill-rule:nonzero;"/><path d="M48.841,35.059l-11.425,0l-0.195,4.422l0.802,0c0.469,-1.213 0.684,-1.878 1.134,-2.543c0.568,-0.899 0.861,-0.939 2.485,-0.939l0.059,0l0,10.467c0,1.076 -0.137,1.154 -0.763,1.291l-0.842,0.157l0,0.704l6.065,0l0,-0.704l-0.841,-0.157c-0.665,-0.137 -0.744,-0.215 -0.744,-1.291l0,-10.467l0.039,0c1.644,0 1.918,0.02 2.505,0.939c0.43,0.665 0.665,1.33 1.115,2.543l0.802,0l-0.196,-4.422Z" style="fill-rule:nonzero;"/><path d="M40.352,61.801l-3.169,-9.352l-5.048,0l0,0.686l0.763,0.156c0.548,0.117 0.724,0.215 0.724,1.311l0,9.059c0,1.271 -0.235,1.369 -0.841,1.506l-0.646,0.137l0,0.705l4.187,0l0,-0.705l-0.646,-0.137c-0.743,-0.137 -0.88,-0.254 -0.88,-1.564l0,-9.743l0.078,0l4.089,11.854l1.252,0l3.795,-11.854l0.078,0l0,9.996c0,1.076 -0.117,1.154 -0.684,1.291l-0.763,0.156l0,0.705l5.712,0l-0.001,-0.705l-0.782,-0.156c-0.547,-0.137 -0.704,-0.215 -0.704,-1.291l0,-9.254c0,-1.096 0.176,-1.174 0.705,-1.311l0.782,-0.156l-0.001,-0.686l-4.832,0l-3.111,9.352l-0.058,0Z" style="fill-rule:nonzero;"/><path d="M29.041,37.799c0,-1.154 1.017,-1.995 2.406,-1.995c0.998,0 1.448,0.293 1.839,0.725c0.489,0.587 0.685,0.978 1.174,2.015l0.782,0l-0.235,-3.346c-0.744,-0.234 -1.781,-0.371 -3.385,-0.371c-2.796,0 -4.656,1.643 -4.656,3.873c0,1.976 0.979,3.11 3.619,4.187c2.427,0.998 3.15,1.702 3.15,2.876c0,1.115 -0.998,2.093 -2.582,2.093c-1.213,0 -1.761,-0.312 -2.27,-0.978c-0.528,-0.705 -0.841,-1.35 -1.31,-2.328l-0.803,0l0.235,3.717c0.881,0.274 2.25,0.587 3.991,0.587c3.267,0 5.008,-1.957 5.008,-4.401c0,-1.82 -1.173,-2.936 -4.206,-4.167c-2.268,-0.941 -2.757,-1.469 -2.757,-2.487Z" style="fill-rule:nonzero;"/><path d="M19.465,48.618l6.025,0l0,-0.704l-0.86,-0.157c-0.607,-0.117 -0.724,-0.215 -0.724,-1.291l0,-9.254c0,-1.095 0.117,-1.193 0.724,-1.31l0.86,-0.157l0,-0.686l-6.025,0l0,0.686l0.841,0.157c0.567,0.116 0.704,0.215 0.704,1.31l0,9.254c0,1.076 -0.137,1.174 -0.704,1.291l-0.841,0.157l0,0.704Z" style="fill-rule:nonzero;"/><path d="M12.292,48.618l5.889,0l0,-0.704l-0.802,-0.157c-0.568,-0.137 -0.724,-0.215 -0.724,-1.291l0,-9.254c0,-1.095 0.176,-1.193 0.724,-1.31l0.802,-0.157l0,-0.686l-5.889,0l0,0.686l0.802,0.157c0.568,0.155 0.685,0.215 0.685,1.31l0,3.972l-5.282,0l0,-3.972c0,-1.095 0.137,-1.154 0.724,-1.31l0.802,-0.157l0,-0.686l-5.889,0l0,0.686l0.763,0.157c0.548,0.116 0.724,0.215 0.724,1.31l0,9.254c0,1.076 -0.176,1.174 -0.724,1.291l-0.763,0.157l0,0.704l5.889,0l0,-0.704l-0.802,-0.157c-0.607,-0.137 -0.724,-0.215 -0.724,-1.291l0,-4.265l5.282,0l0,4.265c0,1.076 -0.117,1.154 -0.685,1.291l-0.802,0.157l0,0.704Z" style="fill-rule:nonzero;"/><path d="M51.892,69.84l-5.713,0l0,0.684l0.528,0.119c0.568,0.137 0.724,0.449 1.213,1.779l3.502,10.975l1.839,0l2.798,-8.061l0.096,0l2.525,8.061l1.819,0l3.227,-10.564c0.451,-1.467 0.666,-2.035 1.312,-2.189l0.548,-0.119l0,-0.685l-4.167,0l0,0.684l0.645,0.137c0.47,0.098 0.666,0.334 0.666,0.744c0,0.373 -0.118,0.881 -0.255,1.35l-2.034,7.336l-0.098,0l-2.387,-7.316c-0.157,-0.508 -0.274,-1.018 -0.274,-1.35c0,-0.41 0.274,-0.684 0.665,-0.764l0.666,-0.137l0,-0.684l-5.635,0l0,0.684l0.47,0.137c0.606,0.137 0.822,0.451 1.213,1.625l0.45,1.389l-2.25,6.416l-0.098,0l-2.191,-7.316c-0.156,-0.527 -0.313,-1.018 -0.313,-1.389c0,-0.41 0.215,-0.627 0.646,-0.725l0.587,-0.137l0,-0.684Z" style="fill-rule:nonzero;"/><path d="M98.517,72.188c0,-1.291 0.234,-1.391 0.842,-1.527l0.645,-0.137l0,-0.684l-4.401,0l0,0.684l0.842,0.137c0.763,0.158 0.899,0.256 0.899,1.566l0,6.436l-0.078,0l-5.674,-8.822l-4.733,0l0,0.684l0.763,0.156c0.547,0.117 0.723,0.217 0.723,1.312l0,9.057c0,1.271 -0.233,1.369 -0.841,1.506l-0.645,0.139l0,0.703l4.304,0l0,-0.703l-0.744,-0.139c-0.763,-0.137 -0.899,-0.254 -0.899,-1.564l0,-9.096l0.078,0l7.531,11.561l1.39,0l0,-11.269l-0.002,0Z" style="fill-rule:nonzero;"/><path d="M85.278,52.449l-10.712,0l0.001,0.686l0.763,0.156c0.549,0.117 0.733,0.215 0.733,1.311l0,9.254c0,1.076 -0.184,1.174 -0.734,1.291l-0.763,0.156l0,0.705l11.122,0l0.293,-4.383l-0.803,0c-0.469,1.174 -0.899,2.094 -1.252,2.562c-0.605,0.783 -0.899,0.842 -2.641,0.842c-2.289,0 -2.347,0.02 -2.347,-1.918l0,-3.639l0.586,0c1.624,0 1.937,0.039 2.211,0.588c0.234,0.527 0.372,0.762 0.527,1.369l0.783,0l0,-4.891l-0.783,0c-0.155,0.625 -0.293,0.9 -0.527,1.35c-0.293,0.488 -0.725,0.588 -2.211,0.588l-0.586,0l0,-4.893c0.37,-0.078 0.919,-0.176 2.171,-0.176c1.564,0 1.976,0 2.582,0.783c0.273,0.391 0.587,0.938 1.037,1.975l0.782,0l-0.233,-3.716Z" style="fill-rule:nonzero;"/><path d="M75.679,71.992l-0.001,9.252c0.001,1.076 -0.175,1.174 -0.724,1.291l-0.763,0.158l0,0.703l11.113,0l0.294,-4.383l-0.802,0c-0.471,1.176 -0.9,2.094 -1.253,2.564c-0.606,0.781 -0.899,0.84 -2.642,0.84c-2.288,0 -2.347,0.021 -2.347,-1.916l0,-3.639l0.587,0c1.623,0 1.936,0.039 2.21,0.586c0.235,0.529 0.372,0.764 0.529,1.369l0.782,0l0,-4.891l-0.782,0c-0.157,0.627 -0.294,0.9 -0.529,1.35c-0.293,0.49 -0.723,0.588 -2.21,0.588l-0.587,0l0,-4.891c0.371,-0.078 0.919,-0.178 2.171,-0.178c1.565,0 1.976,0 2.583,0.783c0.274,0.391 0.587,0.939 1.037,1.977l0.782,0l-0.235,-3.717l-10.7,0l0,0.684l0.763,0.156c0.548,0.119 0.724,0.219 0.724,1.314Z" style="fill-rule:nonzero;"/><path d="M77.088,47.815c-0.608,-0.195 -0.784,-0.234 -0.999,-0.527c-1.076,-1.429 -2.348,-3.522 -3.287,-5.283l0,-0.078c1.918,-0.548 2.896,-1.8 2.896,-3.345c0,-2.328 -1.546,-3.522 -5.106,-3.522l-6.143,0l0,0.686l0.763,0.157c0.548,0.116 0.724,0.215 0.724,1.31l0,9.254c0,1.076 -0.176,1.174 -0.724,1.291l-0.763,0.157l0,0.704l5.869,0l0,-0.704l-0.802,-0.157c-0.587,-0.117 -0.744,-0.215 -0.744,-1.291l0,-3.795c0.04,0 1.429,0.019 1.507,0.019c0.919,1.956 2.21,4.245 3.521,5.929l3.677,0l0,-0.704l-0.39,-0.101Zm-7.239,-6.103c-0.508,0 -1.036,-0.059 -1.076,-0.078l0,-5.478c0.294,-0.078 0.861,-0.138 1.624,-0.138c1.683,0 2.348,0.471 2.348,2.778c0,2.114 -0.861,2.916 -2.896,2.916Z" style="fill-rule:nonzero;"/><path d="M64.273,65.655c0.88,0.273 2.25,0.588 3.991,0.588c3.267,0 5.008,-1.957 5.008,-4.402c0,-1.818 -1.174,-2.934 -4.206,-4.166c-2.269,-0.939 -2.758,-1.469 -2.758,-2.484c0,-1.154 1.017,-1.996 2.406,-1.996c0.998,0 1.448,0.293 1.839,0.723c0.489,0.588 0.685,0.98 1.174,2.016l0.782,0l-0.235,-3.346c-0.743,-0.234 -1.78,-0.371 -3.384,-0.371c-2.798,0 -4.656,1.645 -4.656,3.873c0,1.977 0.978,3.111 3.619,4.188c2.426,0.998 3.15,1.701 3.15,2.875c0,1.115 -0.998,2.094 -2.583,2.094c-1.212,0 -1.76,-0.312 -2.269,-0.979c-0.528,-0.703 -0.841,-1.35 -1.311,-2.328l-0.725,0l0.157,3.715Z" style="fill-rule:nonzero;"/><path d="M68.429,71.992l-0.001,9.252c0.001,1.076 -0.136,1.174 -0.704,1.291l-0.841,0.158l-0.001,0.703l6.026,0l0.001,-0.703l-0.862,-0.158c-0.607,-0.117 -0.724,-0.215 -0.724,-1.291l0,-9.252c0,-1.096 0.117,-1.195 0.724,-1.312l0.861,-0.156l0,-0.684l-6.026,0l0,0.684l0.841,0.156c0.568,0.117 0.705,0.217 0.705,1.312Z" style="fill-rule:nonzero;"/><path d="M56.766,34.826c-3.248,0 -6.613,2.072 -6.613,7.179c0,4.598 2.974,6.848 6.437,6.848c3.247,0 6.611,-1.996 6.611,-7.121c0.001,-4.677 -2.992,-6.906 -6.435,-6.906Zm-0.039,13.009c-2.72,0 -3.541,-2.347 -3.541,-6.201c0,-4.402 1.095,-5.811 3.423,-5.811c2.72,0 3.561,2.406 3.561,6.279c0,4.403 -1.076,5.733 -3.443,5.733Z" style="fill-rule:nonzero;"/><path d="M61.571,61.84l0,-7.043c0,-1.291 0.235,-1.389 0.841,-1.525l0.627,-0.137l-0.001,-0.686l-4.422,0l0,0.686l0.901,0.137c0.742,0.156 0.9,0.254 0.9,1.564l0,6.867c0,2.074 -0.939,3.229 -3.111,3.229c-2.425,0 -3.287,-0.9 -3.287,-2.994l0,-7.336c0,-1.096 0.117,-1.174 0.724,-1.311l0.743,-0.156l0,-0.686l-5.869,0l0,0.686l0.802,0.156c0.548,0.117 0.724,0.215 0.724,1.311l0,7.023c0,3.326 2.211,4.617 5.478,4.617c3.483,0 4.95,-1.996 4.95,-4.402Z" style="fill-rule:nonzero;"/><path d="M67.223,20.057l0,6.866c0,2.074 -0.939,3.229 -3.11,3.229c-2.426,0 -3.287,-0.9 -3.287,-2.993l0,-7.336c0,-1.097 0.117,-1.175 0.724,-1.312l0.743,-0.156l0,-0.685l-5.869,0l0,0.685l0.802,0.156c0.548,0.117 0.724,0.215 0.724,1.312l0,7.022c0,3.326 2.211,4.617 5.478,4.617c3.482,0 4.949,-1.996 4.949,-4.402l0,-7.043c0,-1.291 0.235,-1.389 0.842,-1.525l0.626,-0.137l0,-0.685l-4.422,0l0,0.685l0.9,0.137c0.745,0.156 0.9,0.255 0.9,1.565Z" style="fill-rule:nonzero;"/><path d="M81.58,20.057l0,6.437l-0.078,0l-5.67,-8.823l-4.736,0l0,0.685l0.763,0.156c0.548,0.117 0.724,0.215 0.724,1.312l0,9.058c0,1.271 -0.235,1.369 -0.841,1.506l-0.646,0.137l0,0.704l4.304,0l0,-0.704l-0.742,-0.137c-0.763,-0.137 -0.9,-0.254 -0.9,-1.564l0,-9.098l0.078,0l7.529,11.562l1.389,0l0,-11.27c0,-1.291 0.235,-1.389 0.841,-1.525l0.646,-0.137l0,-0.685l-4.402,0l0,0.685l0.841,0.137c0.763,0.155 0.9,0.254 0.9,1.564Z" style="fill-rule:nonzero;"/><path d="M83.196,46.466l0,-9.254c0,-1.095 0.117,-1.193 0.724,-1.31l0.861,-0.157l0,-0.686l-6.025,0l0,0.686l0.841,0.157c0.567,0.116 0.704,0.215 0.704,1.31l0,9.254c0,1.076 -0.137,1.174 -0.704,1.291l-0.841,0.157l0,0.704l6.025,0l0,-0.704l-0.861,-0.157c-0.608,-0.118 -0.724,-0.215 -0.724,-1.291Z" style="fill-rule:nonzero;"/><path d="M87.552,20.41c-0.001,-1.155 1.017,-1.996 2.406,-1.996c0.998,0 1.447,0.294 1.838,0.724c0.49,0.587 0.687,0.979 1.175,2.016l0.783,0l-0.235,-3.346c-0.742,-0.234 -1.779,-0.372 -3.385,-0.372c-2.797,0 -4.656,1.644 -4.656,3.874c0,1.976 0.979,3.11 3.62,4.187c2.425,0.998 3.149,1.702 3.149,2.876c0,1.115 -0.997,2.093 -2.582,2.093c-1.213,0 -1.761,-0.312 -2.27,-0.978c-0.528,-0.704 -0.842,-1.351 -1.311,-2.328l-0.802,0l0.234,3.717c0.88,0.274 2.249,0.587 3.99,0.587c3.269,0 5.009,-1.956 5.009,-4.402c0,-1.818 -1.174,-2.934 -4.206,-4.167c-2.267,-0.94 -2.757,-1.468 -2.757,-2.485Z" style="fill-rule:nonzero;"/><path d="M88.341,37.799c-0.001,-1.154 1.019,-1.995 2.406,-1.995c0.997,0 1.447,0.293 1.838,0.725c0.49,0.587 0.685,0.978 1.174,2.015l0.783,0l-0.235,-3.346c-0.743,-0.234 -1.779,-0.371 -3.384,-0.371c-2.798,0 -4.657,1.643 -4.657,3.873c0,1.976 0.979,3.11 3.62,4.187c2.426,0.998 3.149,1.702 3.149,2.876c0,1.115 -0.997,2.093 -2.582,2.093c-1.213,0 -1.761,-0.312 -2.27,-0.978c-0.527,-0.705 -0.842,-1.35 -1.311,-2.328l-0.802,0l0.234,3.717c0.88,0.274 2.249,0.587 3.991,0.587c3.267,0 5.008,-1.957 5.008,-4.401c0,-1.82 -1.174,-2.936 -4.206,-4.167c-2.268,-0.941 -2.757,-1.469 -2.757,-2.487Z" style="fill-rule:nonzero;"/><path d="M97.783,54.836l-0.001,6.867c0.001,2.074 -0.938,3.229 -3.111,3.229c-2.425,0 -3.287,-0.9 -3.287,-2.994l0.001,-7.336c-0.001,-1.096 0.117,-1.174 0.724,-1.311l0.744,-0.156l0,-0.686l-5.869,0l0,0.686l0.802,0.156c0.548,0.117 0.724,0.215 0.724,1.311l0,7.023c0,3.326 2.21,4.617 5.478,4.617c3.482,0 4.95,-1.996 4.95,-4.402l0,-7.043c0,-1.291 0.234,-1.389 0.841,-1.525l0.626,-0.137l0,-0.686l-4.421,0l0,0.686l0.899,0.137c0.743,0.156 0.9,0.254 0.9,1.564Z" style="fill-rule:nonzero;"/><path d="M106.605,52.449l-5.05,0l0,0.686l0.764,0.156c0.548,0.117 0.724,0.215 0.724,1.311l0,9.059c0,1.271 -0.234,1.369 -0.841,1.506l-0.646,0.137l0,0.705l4.188,0l0,-0.705l-0.646,-0.137c-0.742,-0.137 -0.88,-0.254 -0.88,-1.564l0,-9.743l0.078,0l4.089,11.854l1.252,0l3.795,-11.854l0.079,0l0,9.996c0,1.076 -0.118,1.154 -0.685,1.291l-0.763,0.156l0,0.705l5.712,0l0,-0.705l-0.782,-0.156c-0.548,-0.137 -0.704,-0.215 -0.704,-1.291l0,-9.254c0,-1.096 0.176,-1.174 0.704,-1.311l0.782,-0.156l0,-0.686l-4.832,0l-3.11,9.352l-0.059,0l-3.17,-9.352Z" style="fill-rule:nonzero;"/><path d="M51.398,93.987l47.111,0" style="fill:none;stroke:#000;stroke-width:0.45px;"/><path d="M51.397,6.013l47.111,0" style="fill:none;stroke:#000;stroke-width:0.45px;"/></svg>